<!DOCTYPE svg PUBLIC "-//W3C//DTD SVG 20010904//EN">
<svg version="1.0" xmlns="http://www.w3.org/2000/svg" width="1120px" height="600px" viewBox="0 0 11200 6000" preserveAspectRatio="xMidYMid meet">
<g id="layer101" fill="#211e1e" stroke="none">
 <path d="M1480 4726 c0 -7 30 -76 66 -152 36 -76 83 -175 104 -219 256 -544 439 -934 489 -1039 33 -70 61 -130 61 -131 0 -1 38 -82 85 -180 47 -97 85 -178 85 -180 0 -2 38 -83 85 -180 47 -98 85 -178 85 -180 0 -2 36 -78 80 -170 44 -92 80 -168 80 -170 0 -1 33 -72 73 -156 41 -85 88 -186 106 -226 l33 -71 96 -7 c138 -11 520 1 634 19 382 62 686 186 981 403 187 138 371 327 622 638 135 167 279 318 357 372 l45 32 46 -97 c25 -53 69 -146 97 -207 92 -198 268 -574 409 -875 l138 -295 184 -3 184 -3 90 -194 89 -195 987 0 987 0 -93 200 -94 201 182 -1 c553 -2 857 1 857 9 0 8 -69 159 -192 421 -22 47 -55 117 -73 155 -18 39 -88 187 -155 330 -163 346 -198 421 -225 480 -12 28 -45 97 -73 155 -27 58 -133 283 -235 500 -102 217 -211 451 -244 520 -32 69 -99 212 -148 317 l-90 193 -785 0 c-596 0 -827 -4 -960 -15 -638 -52 -1031 -190 -1400 -489 -41 -33 -140 -119 -220 -191 -229 -205 -288 -256 -400 -345 -134 -107 -279 -201 -374 -245 -83 -39 -219 -75 -282 -75 l-40 0 -99 218 c-54 119 -119 262 -145 317 -25 55 -120 263 -211 462 l-164 362 -857 1 c-715 0 -858 -2 -858 -14z"/>
 </g>
<g id="layer102" fill="#e73312" stroke="none">
 <path d="M6845 4643 c-496 -15 -854 -87 -1162 -233 -253 -121 -380 -221 -913 -719 -303 -285 -421 -376 -598 -465 -101 -51 -246 -94 -331 -98 l-55 -3 -340 737 -341 737 -742 1 c-409 0 -743 -3 -743 -6 0 -4 193 -417 429 -918 236 -501 538 -1140 670 -1421 l240 -510 43 -8 c67 -13 499 -1 618 17 444 67 814 243 1141 543 122 112 222 221 427 470 98 120 210 248 249 284 280 263 542 318 745 157 60 -47 122 -138 185 -268 124 -258 593 -1273 593 -1284 0 -4 -38 -6 -85 -5 -47 1 -85 -2 -85 -7 -1 -5 32 -78 71 -161 l72 -153 859 0 c472 0 858 2 858 4 0 5 -73 159 -1115 2371 -203 429 -385 817 -406 863 l-39 82 -77 -2 c-43 -1 -118 -3 -168 -5z"/>
 <path d="M5870 3230 c-51 -9 -160 -48 -160 -58 0 -5 396 -853 619 -1324 l60 -128 235 0 c130 0 236 1 236 3 0 2 -9 21 -19 43 -10 21 -102 219 -204 439 -395 854 -384 831 -456 909 -91 97 -196 137 -311 116z"/>
 </g>
<g id="layer103" fill="#ffffff" stroke="none">
 <path d="M6845 4643 c-496 -15 -854 -87 -1162 -233 -253 -121 -380 -221 -913 -719 -303 -285 -421 -376 -598 -465 -101 -51 -246 -94 -331 -98 l-55 -3 -340 737 -341 737 -742 1 c-409 0 -743 -3 -743 -6 0 -4 193 -417 429 -918 236 -501 538 -1140 670 -1421 l240 -510 43 -8 c67 -13 499 -1 618 17 444 67 814 243 1141 543 122 112 222 221 427 470 98 120 210 248 249 284 280 263 542 318 745 157 60 -47 122 -138 185 -268 124 -258 593 -1273 593 -1284 0 -4 -38 -6 -85 -5 -47 1 -85 -2 -85 -7 -1 -5 32 -78 71 -161 l72 -153 859 0 c472 0 858 2 858 4 0 5 -73 159 -1115 2371 -203 429 -385 817 -406 863 l-39 82 -77 -2 c-43 -1 -118 -3 -168 -5z"/>
 </g>

</svg>